<svg width="30" height="30" viewBox="0 0 30 30" fill="none" xmlns="http://www.w3.org/2000/svg">
<path d="M19.7812 16.25L8.53125 5H24.9375C25.4167 5 25.7867 5.20292 26.0475 5.60875C26.3075 6.01542 26.3125 6.45833 26.0625 6.9375L21.625 14.9375C21.3958 15.3542 21.0992 15.6771 20.735 15.9062C20.37 16.1354 20.0521 16.25 19.7812 16.25ZM8.75 27.5C8.0625 27.5 7.47417 27.2554 6.985 26.7663C6.495 26.2762 6.25 25.6875 6.25 25C6.25 24.3125 6.495 23.7237 6.985 23.2337C7.47417 22.7446 8.0625 22.5 8.75 22.5C9.4375 22.5 10.0258 22.7446 10.515 23.2337C11.005 23.7237 11.25 24.3125 11.25 25C11.25 25.6875 11.005 26.2762 10.515 26.7663C10.0258 27.2554 9.4375 27.5 8.75 27.5ZM25.625 29.125L17.6875 21.25H9.5C8.58333 21.25 7.88542 20.8592 7.40625 20.0775C6.92708 19.2967 6.89583 18.4792 7.3125 17.625L8.625 14.9375L6.375 9.875L0.875 4.375L2.625 2.625L27.375 27.375L25.625 29.125ZM15.1875 18.75L12.6875 16.25H10.75L9.5 18.75H15.1875ZM21.25 27.5C20.5625 27.5 19.9742 27.2554 19.485 26.7663C18.995 26.2762 18.75 25.6875 18.75 25C18.75 24.3125 18.995 23.7237 19.485 23.2337C19.9742 22.7446 20.5625 22.5 21.25 22.5C21.9375 22.5 22.5262 22.7446 23.0162 23.2337C23.5054 23.7237 23.75 24.3125 23.75 25C23.75 25.6875 23.5054 26.2762 23.0162 26.7663C22.5262 27.2554 21.9375 27.5 21.25 27.5Z" fill="#26B1E7"/>
</svg>
